<svg width="20" height="21" viewBox="0 0 20 21" fill="none" xmlns="http://www.w3.org/2000/svg">
<path d="M10 20.2598C9.741 20.2598 9.49261 20.1569 9.30947 19.9737C9.12632 19.7906 9.02344 19.5422 9.02344 19.2832V1.23633C9.02344 0.977328 9.12632 0.728935 9.30947 0.545794C9.49261 0.362653 9.741 0.259766 10 0.259766C10.259 0.259766 10.5074 0.362653 10.6905 0.545794C10.8737 0.728935 10.9766 0.977328 10.9766 1.23633V19.2832C10.9766 19.5422 10.8737 19.7906 10.6905 19.9737C10.5074 20.1569 10.259 20.2598 10 20.2598Z" fill="black"/>
<path d="M19.0234 11.2363H0.976562C0.717562 11.2363 0.46917 11.1334 0.286029 10.9503C0.102888 10.7672 0 10.5188 0 10.2598C0 10.0008 0.102888 9.75237 0.286029 9.56923C0.46917 9.38609 0.717562 9.2832 0.976562 9.2832H19.0234C19.2824 9.2832 19.5308 9.38609 19.714 9.56923C19.8971 9.75237 20 10.0008 20 10.2598C20 10.5188 19.8971 10.7672 19.714 10.9503C19.5308 11.1334 19.2824 11.2363 19.0234 11.2363Z" fill="black"/>
</svg>
