<svg width="16" height="9" viewBox="0 0 16 9" fill="none" xmlns="http://www.w3.org/2000/svg">
<path d="M15.8045 0.361504C15.5438 0.100853 15.1225 0.100853 14.8619 0.361504L7.99998 7.22336L1.13812 0.361504C0.877473 0.100853 0.456139 0.100853 0.195488 0.361504C-0.0651627 0.622154 -0.0651627 1.04349 0.195488 1.30414L7.52867 8.63733C7.59051 8.69932 7.66397 8.74849 7.74486 8.78201C7.82574 8.81553 7.91245 8.83275 8.00001 8.83267C8.08756 8.83275 8.17427 8.81553 8.25516 8.78201C8.33604 8.74849 8.40951 8.69932 8.47134 8.63733L15.8045 1.30414C16.0651 1.04349 16.0651 0.622154 15.8045 0.361504Z" fill="#F8FAFC"/>
</svg>
