<svg width="16" height="16" viewBox="0 0 16 16" fill="none" xmlns="http://www.w3.org/2000/svg">
<g clip-path="url(#clip0_3882_3939)">
<path d="M14.8931 6.76774L8.22604 0.0973122C8.19505 0.0663657 8.15826 0.04184 8.11778 0.0251412C8.07729 0.00844245 8.03391 -0.000100942 7.99012 8.99886e-07C7.94629 2.43858e-05 7.90289 0.00868899 7.86241 0.0254991C7.82193 0.0423093 7.78515 0.0669351 7.7542 0.0979682L1.10707 6.76774C1.01176 6.86305 0.983771 7.00632 1.0351 7.13096C1.0604 7.19177 1.10315 7.24372 1.15794 7.28025C1.21274 7.31679 1.27713 7.33627 1.343 7.33624H5.00843V15.6668C5.00843 15.8507 5.15772 16 5.34166 16H10.6732C10.8572 16 11.0065 15.8507 11.0065 15.6668V7.33621H14.6579C14.7925 7.33621 14.9138 7.25489 14.9658 7.13028C15.0178 7.00566 14.9884 6.86305 14.8931 6.76774Z" fill="#0ACD45"/>
</g>
<defs>
<clipPath id="clip0_3882_3939">
<rect width="16" height="16" fill="white"/>
</clipPath>
</defs>
</svg>
