<svg width="17" height="17" viewBox="0 0 17 17" fill="none" xmlns="http://www.w3.org/2000/svg">
<g clip-path="url(#clip0_3882_3999)">
<path d="M1.435 9.73226L8.10208 16.4027C8.13307 16.4336 8.16986 16.4582 8.21035 16.4749C8.25083 16.4916 8.29421 16.5001 8.33801 16.5C8.38184 16.5 8.42524 16.4913 8.46572 16.4745C8.5062 16.4577 8.54297 16.4331 8.57393 16.402L15.2211 9.73226C15.3164 9.63695 15.3444 9.49368 15.293 9.36904C15.2677 9.30823 15.225 9.25628 15.1702 9.21975C15.1154 9.18321 15.051 9.16373 14.9851 9.16376H11.3197L11.3197 0.833197C11.3197 0.649259 11.1704 0.499966 10.9865 0.499966H5.6549C5.47096 0.499966 5.32167 0.649259 5.32167 0.833197V9.16379L1.67023 9.16379C1.53562 9.16379 1.41432 9.24511 1.36233 9.36972C1.31035 9.49434 1.33969 9.63695 1.435 9.73226Z" fill="#DC2626"/>
</g>
<defs>
<clipPath id="clip0_3882_3999">
<rect width="16" height="16" fill="white" transform="matrix(-1 0 0 -1 16.3281 16.5)"/>
</clipPath>
</defs>
</svg>
