<svg width="21" height="21" viewBox="0 0 21 21" fill="none" xmlns="http://www.w3.org/2000/svg">
<g clip-path="url(#clip0_2911_2552)">
<path d="M19.4283 4.93124H3.79072L3.55827 2.3417C3.52025 1.91823 3.16534 1.59375 2.74019 1.59375H1.07137C0.617738 1.59375 0.25 1.96149 0.25 2.41512C0.25 2.86875 0.617738 3.23648 1.07137 3.23648H1.98926C2.49088 8.82498 1.19445 -5.61922 2.93395 13.7613C3.00099 14.5198 3.41085 15.343 4.11692 15.9023C2.84391 17.5279 4.00705 19.9246 6.07779 19.9246C7.79648 19.9246 9.0087 18.2104 8.41931 16.5869H12.9148C12.3261 18.2083 13.5357 19.9246 15.2563 19.9246C16.6294 19.9246 17.7465 18.8075 17.7465 17.4344C17.7465 16.0613 16.6294 14.9442 15.2563 14.9442H6.08334C5.45942 14.9442 4.91571 14.5678 4.68104 14.0193L17.8076 13.2479C17.9822 13.2376 18.149 13.1719 18.2836 13.0602C18.4183 12.9486 18.5138 12.7969 18.5562 12.6272L20.2252 5.9518C20.3545 5.43419 19.9627 4.93124 19.4283 4.93124ZM6.07779 18.2818C5.61055 18.2818 5.23038 17.9017 5.23038 17.4344C5.23038 16.9671 5.61055 16.5869 6.07779 16.5869C6.54507 16.5869 6.92525 16.9671 6.92525 17.4344C6.92525 17.9017 6.54507 18.2818 6.07779 18.2818ZM15.2562 18.2818C14.789 18.2818 14.4088 17.9017 14.4088 17.4344C14.4088 16.9671 14.789 16.5869 15.2562 16.5869C15.7235 16.5869 16.1037 16.9671 16.1037 17.4344C16.1037 17.9017 15.7235 18.2818 15.2562 18.2818ZM17.1089 11.6434L4.45993 12.3867L3.93817 6.57393H18.3763L17.1089 11.6434Z" fill="white"/>
</g>
<defs>
<clipPath id="clip0_2911_2552">
<rect width="20" height="20" fill="white" transform="translate(0.25 0.759766)"/>
</clipPath>
</defs>
</svg>
