<svg width="25" height="24" viewBox="0 0 25 24" fill="none" xmlns="http://www.w3.org/2000/svg">
<g clip-path="url(#clip0_2522_4005)">
<path d="M0.328125 23.2H24.3281V24H0.328125V23.2ZM1.92813 22.4H5.92812C6.03421 22.4 6.13595 22.3579 6.21097 22.2828C6.28598 22.2078 6.32812 22.1061 6.32812 22V14.8C6.32812 14.6939 6.28598 14.5922 6.21097 14.5172C6.13595 14.4421 6.03421 14.4 5.92812 14.4H1.92813C1.82204 14.4 1.7203 14.4421 1.64528 14.5172C1.57027 14.5922 1.52813 14.6939 1.52813 14.8V22C1.52813 22.1061 1.57027 22.2078 1.64528 22.2828C1.7203 22.3579 1.82204 22.4 1.92813 22.4ZM2.32812 15.2H5.52813V21.6H2.32812V15.2ZM13.1281 22.4H17.1281C17.2342 22.4 17.336 22.3579 17.411 22.2828C17.486 22.2078 17.5281 22.1061 17.5281 22V10C17.5281 9.89391 17.486 9.79217 17.411 9.71716C17.336 9.64214 17.2342 9.6 17.1281 9.6H13.1281C13.022 9.6 12.9203 9.64214 12.8453 9.71716C12.7703 9.79217 12.7281 9.89391 12.7281 10V22C12.7281 22.1061 12.7703 22.2078 12.8453 22.2828C12.9203 22.3579 13.022 22.4 13.1281 22.4ZM13.5281 10.4H16.7281V21.6H13.5281V10.4ZM7.52813 22.4H11.5281C11.6342 22.4 11.736 22.3579 11.811 22.2828C11.886 22.2078 11.9281 22.1061 11.9281 22V5.2C11.9281 5.09391 11.886 4.99217 11.811 4.91716C11.736 4.84214 11.6342 4.8 11.5281 4.8H7.52813C7.42204 4.8 7.3203 4.84214 7.24528 4.91716C7.17027 4.99217 7.12813 5.09391 7.12813 5.2V22C7.12813 22.1061 7.17027 22.2078 7.24528 22.2828C7.3203 22.3579 7.42204 22.4 7.52813 22.4ZM7.92812 5.6H11.1281V21.6H7.92812V5.6ZM18.7281 22.4H22.7281C22.8342 22.4 22.936 22.3579 23.011 22.2828C23.086 22.2078 23.1281 22.1061 23.1281 22V0.4C23.1281 0.293913 23.086 0.192172 23.011 0.117157C22.936 0.0421427 22.8342 0 22.7281 0L18.7281 0C18.622 0 18.5203 0.0421427 18.4453 0.117157C18.3703 0.192172 18.3281 0.293913 18.3281 0.4V22C18.3281 22.1061 18.3703 22.2078 18.4453 22.2828C18.5203 22.3579 18.622 22.4 18.7281 22.4ZM19.1281 0.8H22.3281V21.6H19.1281V0.8Z" fill="#D9D9D9"/>
</g>
<defs>
<clipPath id="clip0_2522_4005">
<rect width="24" height="24" fill="white" transform="translate(0.328125)"/>
</clipPath>
</defs>
</svg>
