<svg width="9" height="15" viewBox="0 0 9 15" fill="none" xmlns="http://www.w3.org/2000/svg">
<path d="M6.1776 7.49704L0.940232 12.7346C0.796022 12.8785 0.716688 13.0709 0.716688 13.276C0.716688 13.4812 0.796022 13.6734 0.940232 13.8175L1.39916 14.2762C1.54314 14.4206 1.73561 14.5 1.94072 14.5C2.14583 14.5 2.33807 14.4206 2.48217 14.2762L8.71809 8.04042C8.86275 7.89587 8.94197 7.70272 8.9414 7.49738C8.94197 7.29114 8.86287 7.09821 8.71809 6.95354L2.48797 0.723772C2.34388 0.579447 2.15163 0.5 1.94641 0.5C1.74131 0.5 1.54906 0.579447 1.40485 0.723772L0.946039 1.18247C0.647486 1.48102 0.647486 1.96704 0.946039 2.26548L6.1776 7.49704Z" fill="#D9D9D9"/>
</svg>
