<svg width="25" height="24" viewBox="0 0 25 24" fill="none" xmlns="http://www.w3.org/2000/svg">
<path d="M5.57812 0C2.67895 0 0.328641 2.35003 0.328125 5.24911V18.7509C0.328641 21.65 2.67895 24 5.57812 24H8.32814V0H5.57812Z" fill="#464655"/>
<path d="M8.32812 0H16.3283V24H8.32812V0Z" fill="#FF4B55"/>
<path d="M24.3281 18.75V5.25C24.3281 2.3505 21.9776 0 19.0781 0H16.3281V24H19.0781C21.9776 24 24.3281 21.6495 24.3281 18.75Z" fill="#D9D9D9"/>
<path d="M13.4078 12.8104H11.248L11.368 12.5704H13.2878L13.4078 12.8104ZM13.4078 10.8906H11.248L11.368 11.1306H13.2878L13.4078 10.8906Z" fill="black"/>
<path d="M12.9271 11.0115H11.7273L11.9672 10.7715H12.6872L12.9271 11.0115ZM11.3672 12.2115H11.7271V12.4515H11.3672V12.2115ZM11.3672 11.8515H11.7271V12.0915H11.3672V11.8515ZM11.3672 11.2515H11.7271V11.4915H11.3672V11.2515ZM11.3672 11.6115H11.7271V11.7315H11.3672V11.6115ZM12.9272 12.2115H13.2871V12.4515H12.9272V12.2115ZM12.9272 11.8515H13.2871V12.0915H12.9272V11.8515ZM12.9272 11.2515H13.2871V11.4915H12.9272V11.2515ZM12.9272 11.6115H13.2871V11.7315H12.9272V11.6115ZM11.4872 10.2915H11.7272V10.7715H11.4872V10.2915ZM11.7273 10.1716H11.4873V10.0404C11.4873 10.0115 11.4988 9.98389 11.5192 9.96349C11.5396 9.9431 11.5672 9.93164 11.5961 9.93164H11.6186C11.6474 9.93164 11.6751 9.9431 11.6955 9.96349C11.7159 9.98389 11.7273 10.0115 11.7273 10.0404V10.1716H11.7273ZM12.9272 10.2915H13.1671V10.7715H12.9272V10.2915ZM13.1671 10.1716H12.9271V10.0404C12.9271 10.0115 12.9386 9.98389 12.959 9.96349C12.9794 9.9431 13.007 9.93164 13.0359 9.93164H13.0584C13.0872 9.93164 13.1149 9.9431 13.1353 9.96349C13.1557 9.98389 13.1671 10.0115 13.1671 10.0404V10.1716H13.1671ZM12.3722 11.2515H12.2822C12.1668 11.2515 12.0562 11.2973 11.9746 11.3789C11.8931 11.4605 11.8472 11.5711 11.8472 11.6865V12.4514H12.8071V11.6865C12.8071 11.5711 12.7613 11.4605 12.6797 11.3789C12.5982 11.2973 12.4875 11.2515 12.3722 11.2515Z" fill="black"/>
<path d="M11.5335 12.0074L10.8802 11.2452C10.8844 11.2329 10.888 11.2202 10.888 11.2065C10.888 11.1828 10.8809 11.1596 10.8678 11.1398C10.8546 11.1201 10.8358 11.1047 10.8139 11.0956C10.792 11.0866 10.7679 11.0842 10.7446 11.0888C10.7213 11.0934 10.6999 11.1049 10.6831 11.1216C10.6663 11.1384 10.6549 11.1598 10.6503 11.1831C10.6457 11.2064 10.648 11.2305 10.6571 11.2524C10.6662 11.2743 10.6816 11.2931 10.7013 11.3063C10.721 11.3195 10.7443 11.3265 10.768 11.3265C10.7752 11.3265 10.7815 11.3236 10.7883 11.3224L10.8559 11.4013L10.528 12.1664L10.8879 12.5264L11.1987 11.8012L11.4423 12.0855L11.5335 12.0074ZM10.9498 12.2581L10.6626 11.9709L10.7921 11.6685L11.0793 11.9557L10.9498 12.2581ZM13.2163 12.0855L13.4599 11.8012L13.7707 12.5264L14.1307 12.1664L13.8027 11.4013L13.8703 11.3224C13.8772 11.3236 13.8834 11.3265 13.8907 11.3265C13.9144 11.3265 13.9376 11.3195 13.9573 11.3063C13.9771 11.2931 13.9924 11.2743 14.0015 11.2524C14.0106 11.2305 14.013 11.2064 14.0084 11.1831C14.0037 11.1598 13.9923 11.1384 13.9755 11.1216C13.9587 11.1049 13.9373 11.0934 13.9141 11.0888C13.8908 11.0842 13.8667 11.0866 13.8447 11.0956C13.8228 11.1047 13.8041 11.1201 13.7909 11.1398C13.7777 11.1596 13.7707 11.1828 13.7707 11.2065C13.7707 11.2202 13.7742 11.2329 13.7785 11.2452L13.1252 12.0074L13.2163 12.0855ZM13.5794 11.9557L13.8666 11.6685L13.9961 11.9708L13.7089 12.258L13.5794 11.9557ZM12.4637 10.0725C12.426 10.0614 12.3924 10.0409 12.3711 10.0078C12.3553 9.98323 12.3409 9.9578 12.3279 9.93164C12.3149 9.95781 12.3005 9.98324 12.2847 10.0078C12.2634 10.0409 12.2298 10.0614 12.1921 10.0725C11.9933 10.1311 11.8479 10.3139 11.8479 10.5316C11.8479 10.5733 11.8549 10.613 11.8649 10.6516H12.7909C12.8009 10.613 12.8078 10.5733 12.8078 10.5316C12.8078 10.3139 12.6624 10.1311 12.4637 10.0725ZM9.57816 11.8373C9.57174 11.7622 9.56839 11.6869 9.56813 11.6115C9.56813 11.4573 9.58209 11.3057 9.60684 11.157C9.6438 11.1825 9.67997 11.2092 9.71531 11.2369C9.69737 11.3609 9.68827 11.4861 9.68808 11.6115C9.68808 11.7002 9.69263 11.7879 9.7012 11.8744L9.95484 11.9506C9.939 11.8395 9.92803 11.7269 9.92803 11.6115C9.92803 11.5542 9.93145 11.4974 9.936 11.441C10.0685 11.5879 10.173 11.7653 10.173 11.9615C10.173 11.9665 10.5579 11.3915 9.85805 10.7566L9.85303 11.0265L9.44991 11.0223C9.43225 11.022 9.41509 11.0281 9.40143 11.0393C9.38778 11.0504 9.37852 11.0661 9.37528 11.0835C9.34409 11.2577 9.32831 11.4344 9.32812 11.6115C9.32812 11.6624 9.32944 11.713 9.33197 11.7634L9.57816 11.8373Z" fill="black"/>
<path d="M10.6438 9.42583C10.669 9.40637 10.6854 9.37771 10.6894 9.34615C10.6935 9.31459 10.6848 9.28272 10.6653 9.25754C10.6459 9.23237 10.6172 9.21595 10.5857 9.21191C10.5541 9.20787 10.5222 9.21653 10.4971 9.23598C9.95402 9.65537 9.58136 10.2316 9.41992 10.877L9.66723 10.8802C9.82295 10.309 10.1597 9.7997 10.6438 9.42583Z" fill="black"/>
<path d="M10.4828 9.72568C10.2219 9.98124 10.0243 10.282 9.88994 10.6088C9.95759 10.6639 10.0197 10.7254 10.0754 10.7926C10.1964 10.4595 10.389 10.1536 10.6508 9.89724C10.6735 9.87498 10.6865 9.84459 10.6868 9.81277C10.6871 9.78095 10.6748 9.75029 10.6525 9.72755C10.6415 9.71627 10.6284 9.70727 10.6139 9.70107C10.5994 9.69487 10.5838 9.69159 10.5681 9.69141C10.5523 9.69124 10.5367 9.69418 10.522 9.70006C10.5074 9.70594 10.4941 9.71464 10.4828 9.72568ZM10.0658 13.1844C9.88563 12.9261 9.75093 12.6389 9.66752 12.3352L9.80702 12.3864C9.89322 12.664 10.0246 12.9256 10.1957 13.1606L10.4605 13.1121C10.3097 12.925 10.1877 12.7165 10.0983 12.4934L10.2549 12.5509C10.3427 12.7447 10.4572 12.9253 10.5949 13.0875L10.8706 13.037C10.7622 12.9264 10.6674 12.8019 10.5858 12.6675L10.4261 12.3482C10.4017 12.2995 10.3676 12.2562 10.3258 12.2211C10.2841 12.1859 10.2356 12.1597 10.1834 12.1441L9.80561 12.0305L9.71828 12.0043L9.59256 11.9665L9.34248 11.8914L9.20898 11.8512L9.29163 12.0991C9.3097 12.1529 9.34597 12.1988 9.39419 12.2288C9.4693 12.5855 9.60911 12.9255 9.80669 13.2319L10.0658 13.1844ZM14.8034 11.0263L14.7984 10.7564C14.0984 11.3913 14.4834 11.9663 14.4834 11.9612C14.4834 11.7651 14.5879 11.5876 14.7204 11.4407C14.725 11.4972 14.7284 11.5539 14.7284 11.6113C14.7284 11.7267 14.7174 11.8393 14.7016 11.9504L14.9552 11.8741C14.9639 11.7868 14.9683 11.6991 14.9683 11.6113C14.9683 11.4847 14.9586 11.3597 14.9411 11.2366C14.9764 11.2089 15.0126 11.1823 15.0496 11.1568C15.0744 11.3055 15.0883 11.4571 15.0883 11.6112C15.0881 11.6866 15.0847 11.762 15.0783 11.8371L15.3244 11.7631C15.327 11.7125 15.3283 11.6619 15.3283 11.6112C15.3283 11.432 15.3117 11.2556 15.2811 11.0832C15.2778 11.0659 15.2686 11.0502 15.2549 11.039C15.2413 11.0278 15.2241 11.0218 15.2065 11.0221L14.8034 11.0263Z" fill="black"/>
<path d="M14.9899 10.8802L15.2372 10.877C15.0758 10.2316 14.7032 9.65537 14.1601 9.23598C14.1477 9.22635 14.1334 9.21926 14.1182 9.21513C14.103 9.211 14.0871 9.20991 14.0715 9.21191C14.0559 9.21391 14.0408 9.21897 14.0271 9.2268C14.0135 9.23463 14.0015 9.24508 13.9918 9.25754C13.9822 9.27001 13.9751 9.28425 13.971 9.29945C13.9669 9.31466 13.9658 9.33052 13.9678 9.34615C13.9698 9.36178 13.9748 9.37686 13.9827 9.39053C13.9905 9.4042 14.0009 9.41619 14.0134 9.42583C14.4974 9.79965 14.8342 10.3089 14.9899 10.8802Z" fill="black"/>
<path d="M14.7659 10.6088C14.6315 10.282 14.434 9.98124 14.173 9.72568C14.1618 9.71464 14.1484 9.70593 14.1338 9.70005C14.1192 9.69418 14.1035 9.69124 14.0878 9.69141C14.072 9.69159 14.0564 9.69487 14.042 9.70107C14.0275 9.70727 14.0143 9.71627 14.0033 9.72755C13.9811 9.75029 13.9687 9.78094 13.9691 9.81276C13.9694 9.84459 13.9824 9.87497 14.0051 9.89724C14.2669 10.1536 14.4595 10.4595 14.5805 10.7926C14.6361 10.7254 14.6982 10.6638 14.7659 10.6088ZM15.3133 11.8913L15.0633 11.9665L14.9375 12.0043L14.8502 12.0305L14.4724 12.144C14.4202 12.1597 14.3717 12.1859 14.3299 12.221C14.2882 12.2562 14.2541 12.2994 14.2297 12.3482L14.07 12.6675C13.9884 12.8018 13.8936 12.9263 13.7852 13.037L14.0608 13.0875C14.1986 12.9253 14.3131 12.7447 14.4009 12.5509L14.5575 12.4934C14.4681 12.7165 14.346 12.925 14.1952 13.1121L14.4601 13.1606C14.6312 12.9256 14.7626 12.664 14.8488 12.3864L14.9883 12.3352C14.9049 12.6389 14.7702 12.9261 14.59 13.1844L14.8492 13.2318C15.0468 12.9254 15.1866 12.5855 15.2617 12.2287C15.3099 12.1987 15.3462 12.1529 15.3642 12.0991L15.4469 11.8512L15.3133 11.8913ZM13.5777 13.218L13.5715 13.2234C13.2224 13.4928 12.7889 13.651 12.3272 13.651C11.8655 13.651 11.432 13.4928 11.0829 13.2234L11.0767 13.218C11.0545 13.1935 11.0262 13.1752 10.9948 13.1649C10.9633 13.1546 10.9297 13.1526 10.8973 13.1591L9.6875 13.411L9.95595 13.6463C10.0265 13.7078 10.1184 13.7391 10.2118 13.7333C10.4287 13.9496 10.6772 14.1317 10.9488 14.2733L10.8702 14.4184C11.3172 14.6617 11.8182 14.7888 12.3272 14.7882C12.8362 14.7888 13.3372 14.6617 13.7843 14.4184L13.7057 14.2733C13.9773 14.1317 14.2258 13.9496 14.4427 13.7333C14.5361 13.7391 14.628 13.7078 14.6985 13.6463L14.9669 13.411L13.7571 13.1591C13.7247 13.1526 13.6911 13.1546 13.6597 13.1649C13.6282 13.1752 13.6 13.1935 13.5777 13.218ZM11.0634 14.0616C10.8459 13.9484 10.6468 13.8055 10.4676 13.6411L10.5841 13.5856C10.7469 13.7296 10.9258 13.8557 11.1203 13.9566L11.0634 14.0616ZM14.1867 13.6411C14.0075 13.8055 13.8084 13.9484 13.5909 14.0616L13.5341 13.9566C13.7285 13.8557 13.9075 13.7296 14.0702 13.5856L14.1867 13.6411ZM12.3272 14.011C11.7557 14.011 11.232 13.8083 10.8197 13.4732L10.9395 13.4161C11.3288 13.716 11.8126 13.891 12.3272 13.891C12.8418 13.891 13.3256 13.716 13.7149 13.4161L13.8346 13.4732C13.4224 13.8083 12.8987 14.011 12.3272 14.011Z" fill="black"/>
<path d="M11.0117 13.0484C11.0632 13.0921 11.1168 13.1332 11.1724 13.1716H13.4843C13.5399 13.1332 13.5935 13.0921 13.645 13.0484L13.5282 12.9316H11.1284L11.0117 13.0484Z" fill="black"/>
</svg>
