<svg width="34" height="24" viewBox="0 0 34 24" fill="none" xmlns="http://www.w3.org/2000/svg">
<path d="M31.4537 0.861328H2.54635C1.14 0.861328 0 2.00132 0 3.40768V8.28661H34V3.40768C34 2.00132 32.86 0.861328 31.4537 0.861328Z" fill="#FAB446"/>
<path d="M0 20.5899C0 21.9962 1.14 23.1362 2.54635 23.1362H31.4537C32.8599 23.1362 34 21.9962 34 20.5899V15.7109H0V20.5899Z" fill="#73AF00"/>
<path d="M0 8.28711H34V15.712H0V8.28711Z" fill="#F5F5F5"/>
<path d="M17.0005 15.1493C15.263 15.1493 13.8496 13.736 13.8496 11.9985C13.8496 10.261 15.263 8.84766 17.0005 8.84766C18.7379 8.84766 20.1513 10.261 20.1513 11.9985C20.1513 13.736 18.7379 15.1493 17.0005 15.1493ZM17.0005 9.43382C15.5861 9.43382 14.4358 10.5842 14.4358 11.9985C14.4358 13.4128 15.5861 14.5632 17.0005 14.5632C18.4148 14.5632 19.5651 13.4128 19.5651 11.9985C19.5651 10.5842 18.4148 9.43382 17.0005 9.43382Z" fill="#41479B"/>
<path d="M16.9998 12.357C17.1971 12.357 17.357 12.1971 17.357 11.9998C17.357 11.8025 17.1971 11.6426 16.9998 11.6426C16.8025 11.6426 16.6426 11.8025 16.6426 11.9998C16.6426 12.1971 16.8025 12.357 16.9998 12.357Z" fill="#41479B"/>
<path d="M17.0003 12.0523L16.0925 12.144L14.1426 12.0523V11.9452L16.0925 11.8535L17.0003 11.9452V12.0523ZM17.0003 12.0523L17.9081 12.144L19.858 12.0523V11.9452L17.9081 11.8535L17.0003 11.9452V12.0523Z" fill="#41479B"/>
<path d="M16.9471 11.9984L16.8555 11.0906L16.9471 9.14062H17.0543L17.1459 11.0906L17.0543 11.9984H16.9471ZM16.9471 11.9984L16.8555 12.9061L16.9471 14.8561H17.0543L17.1459 12.9061L17.0543 11.9984H16.9471Z" fill="#41479B"/>
<path d="M16.9621 12.0379L16.2555 11.4608L14.9414 10.0172L15.0172 9.94141L16.4608 11.2555L17.0379 11.9621L16.9621 12.0379Z" fill="#41479B"/>
<path d="M16.9629 12.0366L17.5399 12.7433L18.9836 14.0574L19.0593 13.9816L17.7453 12.5379L17.0386 11.9609L16.9629 12.0366Z" fill="#41479B"/>
<path d="M16.9629 11.9621L17.5399 11.2555L18.9836 9.94141L19.0593 10.0172L17.7453 11.4608L17.0386 12.0379L16.9629 11.9621Z" fill="#41479B"/>
<path d="M16.9621 11.9609L16.2555 12.5379L14.9414 13.9816L15.0172 14.0574L16.4608 12.7433L17.0379 12.0366L16.9621 11.9609Z" fill="#41479B"/>
<path d="M17.0211 12.0483L16.2174 12.4803L14.3809 13.1419L14.3398 13.0429L16.1063 12.212L16.98 11.9492L17.0211 12.0483Z" fill="#41479B"/>
<path d="M17.0196 12.0481L17.8933 11.7854L19.6597 10.9545L19.6187 10.8555L17.7822 11.517L16.9785 11.949L17.0196 12.0481Z" fill="#41479B"/>
<path d="M16.951 12.0191L16.519 11.2155L15.8574 9.37893L15.9564 9.33789L16.7873 11.1044L17.0501 11.9781L16.951 12.0191Z" fill="#41479B"/>
<path d="M16.9512 12.0196L17.2139 12.8933L18.0448 14.6597L18.1438 14.6187L17.4823 12.7822L17.0503 11.9785L16.9512 12.0196Z" fill="#41479B"/>
<path d="M16.98 12.0481L16.1063 11.7854L14.3398 10.9545L14.3809 10.8555L16.2174 11.517L17.0211 11.949L16.98 12.0481ZM16.98 12.0481L17.7837 12.4802L19.6202 13.1417L19.6612 13.0427L17.8948 12.2118L17.0211 11.949L16.98 12.0481Z" fill="#41479B"/>
<path d="M16.951 11.9781L17.2138 11.1044L18.0446 9.33789L18.1437 9.37893L17.4821 11.2155L17.0501 12.0191L16.951 11.9781ZM16.951 11.9781L16.519 12.7817L15.8574 14.6183L15.9564 14.6593L16.7873 12.8928L17.0501 12.0191L16.951 11.9781Z" fill="#41479B"/>
<path d="M16.9994 12.4813C17.2655 12.4813 17.4813 12.2655 17.4813 11.9994C17.4813 11.7333 17.2655 11.5176 16.9994 11.5176C16.7333 11.5176 16.5176 11.7333 16.5176 11.9994C16.5176 12.2655 16.7333 12.4813 16.9994 12.4813Z" fill="#F5F5F5"/>
<path d="M16.9999 12.2888C17.1594 12.2888 17.2888 12.1594 17.2888 11.9999C17.2888 11.8403 17.1594 11.7109 16.9999 11.7109C16.8403 11.7109 16.7109 11.8403 16.7109 11.9999C16.7109 12.1594 16.8403 12.2888 16.9999 12.2888Z" fill="#41479B"/>
</svg>
