<svg width="17" height="20" viewBox="0 0 17 20" fill="none" xmlns="http://www.w3.org/2000/svg">
<path d="M16.848 11.4664L15.34 8.85664C15.1699 8.56089 14.8893 8.56089 14.7192 8.85664L13.2102 11.4664C13.0401 11.7621 13.1798 12.0048 13.5222 12.0048H14.144C14.0389 12.5075 13.9078 13.0036 13.6857 13.4706C13.4707 13.9237 13.2034 14.3501 12.8895 14.7413C12.1301 15.6741 11.1269 16.2926 10.0122 16.6155L9.49107 8.50347H11.4736C11.5669 8.672 11.7036 8.8125 11.8695 8.91041C12.0354 9.00832 12.2245 9.06007 12.4172 9.0603C12.7053 9.0603 12.9817 8.94582 13.1855 8.74205C13.3893 8.53828 13.5037 8.2619 13.5037 7.97372C13.5037 7.68554 13.3893 7.40916 13.1855 7.20539C12.9817 7.00161 12.7053 6.88714 12.4172 6.88714C12.2246 6.88771 12.0356 6.9396 11.8698 7.03747C11.7039 7.13535 11.5672 7.27566 11.4736 7.44397H9.42282L9.29607 5.47122C9.80448 5.30482 10.2476 4.98249 10.5624 4.55C10.8772 4.11751 11.0478 3.59683 11.05 3.06189C11.05 1.65464 9.90599 0.511719 8.49982 0.511719C7.09365 0.511719 5.95074 1.65464 5.95074 3.06189C5.95273 3.59656 6.12302 4.11704 6.43744 4.5495C6.75187 4.98196 7.19448 5.30445 7.70249 5.47122L7.57574 7.44397H5.52499C5.4318 7.27524 5.29515 7.13452 5.12923 7.03641C4.96331 6.9383 4.77416 6.88639 4.5814 6.88605C4.29322 6.88605 4.01685 7.00053 3.81307 7.2043C3.6093 7.40808 3.49482 7.68446 3.49482 7.97264C3.49482 8.26082 3.6093 8.53719 3.81307 8.74097C4.01685 8.94474 4.29322 9.05922 4.5814 9.05922C4.77416 9.05884 4.96333 9.00704 5.12939 8.90915C5.29545 8.81127 5.43239 8.67085 5.52607 8.50239H7.5064L6.98532 16.6144C5.87165 16.2905 4.8674 15.673 4.10799 14.7402C3.79418 14.349 3.52696 13.9225 3.31174 13.4695C3.08965 13.0026 2.95857 12.5064 2.8524 12.0037H3.47749C3.81874 12.0037 3.95849 11.7611 3.7884 11.4653L2.2804 8.85555C2.11032 8.5598 1.82974 8.5598 1.65857 8.85555L0.150569 11.4653C-0.0195139 11.7611 0.120236 12.0037 0.461486 12.0037H1.14182C1.11365 12.7556 1.22957 13.4825 1.41265 14.2126C1.5914 14.9233 1.89257 15.5982 2.30099 16.2081C3.12649 17.4442 4.34199 18.4322 5.73949 18.9425C6.62699 19.2607 7.55693 19.4451 8.49874 19.4896C9.4402 19.4452 10.3698 19.2608 11.2569 18.9425C12.6555 18.4311 13.8699 17.4431 14.6954 16.2081C15.1039 15.5989 15.4044 14.9239 15.5837 14.2126C15.7668 13.4825 15.8827 12.7556 15.8546 12.0037H16.5371C16.8794 12.0048 17.0192 11.7621 16.848 11.4664ZM8.49982 2.13347C8.73773 2.14498 8.96208 2.24759 9.12639 2.42003C9.29069 2.59248 9.38234 2.82153 9.38234 3.05972C9.38234 3.29791 9.29069 3.52696 9.12639 3.6994C8.96208 3.87185 8.73773 3.97446 8.49982 3.98597C8.26191 3.97446 8.03755 3.87185 7.87325 3.6994C7.70895 3.52696 7.6173 3.29791 7.6173 3.05972C7.6173 2.82153 7.70895 2.59248 7.87325 2.42003C8.03755 2.24759 8.26191 2.14498 8.49982 2.13347Z" fill="#F8FAFC"/>
</svg>
