<svg width="24" height="30" viewBox="0 0 24 30" fill="none" xmlns="http://www.w3.org/2000/svg">
<path fill-rule="evenodd" clip-rule="evenodd" d="M7.82718 2.31026L17.9672 0.687592C18.2929 0.635435 18.6267 0.678312 18.9286 0.811082C19.2305 0.943852 19.4877 1.16088 19.6694 1.43615C19.8511 1.71142 19.9495 2.03325 19.9529 2.36306C19.9563 2.69286 19.8645 3.01664 19.6885 3.29559L16.4778 8.37959L22.5845 13.7076C22.769 13.8685 22.9168 14.0671 23.0181 14.29C23.1195 14.5128 23.1719 14.7548 23.1719 14.9996C23.1719 15.2444 23.1195 15.4864 23.0181 15.7092C22.9168 15.9321 22.769 16.1306 22.5845 16.2916L16.4778 21.6196L19.6885 26.7036C19.8639 26.9826 19.9552 27.3063 19.9515 27.6358C19.9479 27.9654 19.8494 28.2869 19.6678 28.562C19.4863 28.8371 19.2293 29.054 18.9278 29.187C18.6262 29.3199 18.2927 29.3632 17.9672 29.3116L7.82718 27.6889L7.82718 2.31026ZM5.82718 27.3689L2.87118 26.8956C2.30083 26.8046 1.78162 26.5132 1.40675 26.0738C1.03188 25.6344 0.825924 25.0758 0.825848 24.4983V5.50093C0.825848 4.30893 1.69251 3.29159 2.87118 3.10359L5.82718 2.63026V27.3689Z" fill="#212124"/>
</svg>
