<svg width="28" height="28" viewBox="0 0 28 28" fill="none" xmlns="http://www.w3.org/2000/svg">
<path d="M10.3201 1.33555C9.81798 1.67927 9.2413 1.89864 8.63768 1.97555L7.55647 2.10646C7.09869 2.16091 6.66111 2.32628 6.28174 2.58821C5.90236 2.85014 5.59265 3.20071 5.3795 3.60949L4.87526 4.57434C4.59154 5.11279 4.18245 5.57508 3.68253 5.92222L2.78556 6.53312C2.40601 6.79458 2.09564 7.1443 1.88112 7.55222C1.66661 7.96014 1.55436 8.41406 1.55405 8.87494V9.961C1.55405 10.5671 1.40374 11.1683 1.12253 11.7065L0.618288 12.6762C0.181925 13.5052 0.181925 14.4943 0.618288 15.3234L1.12253 16.2883C1.40374 16.8265 1.55405 17.4277 1.55405 18.0337L1.55405 19.1198C1.55405 20.0556 2.01465 20.9331 2.78556 21.4616L3.68253 22.0774C4.18353 22.4233 4.59287 22.8859 4.87526 23.4252L5.3795 24.3901C5.81586 25.2192 6.63041 25.7816 7.55647 25.8931L8.63768 26.024C9.24095 26.0992 9.81765 26.317 10.3201 26.6592L11.2122 27.2846C11.5917 27.5465 12.0291 27.7124 12.4868 27.7682C12.9445 27.8239 13.4089 27.7678 13.8401 27.6046L14.8583 27.2168C15.4256 27.0034 16.0413 26.9259 16.6425 26.9986L17.7237 27.1295C18.6547 27.241 19.5759 26.8919 20.2013 26.1889L20.9237 25.3743C21.3262 24.9186 21.8401 24.5695 22.4025 24.3513L23.4207 23.9634C24.2934 23.6337 24.9528 22.8919 25.1759 21.9804L25.4377 20.9234C25.5831 20.3368 25.8692 19.784 26.2716 19.3331L26.994 18.5186C27.2996 18.1734 27.517 17.7593 27.6276 17.3118C27.7382 16.8643 27.7387 16.3967 27.6292 15.9489L27.3674 14.8919C27.2947 14.5962 27.2607 14.2956 27.2607 13.9949C27.2607 13.6943 27.2995 13.3889 27.3674 13.098L27.6292 12.041C27.739 11.5932 27.7386 11.1255 27.6279 10.678C27.5173 10.2304 27.2998 9.81636 26.994 9.47131L26.2716 8.65676C25.8692 8.201 25.5783 7.65313 25.4377 7.06646L25.1759 6.00949C24.9528 5.10282 24.2934 4.361 23.4207 4.02646L22.4025 3.64343C21.8336 3.42806 21.3259 3.07686 20.9237 2.6204L20.2013 1.80585C19.8947 1.46099 19.5093 1.19535 19.0779 1.03157C18.6465 0.867794 18.1819 0.810732 17.7237 0.865246L16.6425 0.996157C16.0413 1.06888 15.4256 0.996155 14.8583 0.777973L13.8401 0.390095C12.9674 0.0603981 11.9831 0.176762 11.2122 0.710094L10.3201 1.33555ZM24.1771 13.9998C24.1771 19.5222 19.6825 24.0168 14.1601 24.0168C8.63768 24.0168 4.14314 19.5222 4.14314 13.9998C4.14314 8.47737 8.63768 3.98282 14.1601 3.98282C19.6825 3.98282 24.1771 8.47737 24.1771 13.9998Z" fill="#212124"/>
</svg>
