<svg width="22" height="22" viewBox="0 0 22 22" fill="none" xmlns="http://www.w3.org/2000/svg">
<path d="M20.5417 11.3913V2.97917C20.5411 2.18922 20.227 1.43179 19.6685 0.873212C19.1099 0.314634 18.3524 0.000573882 17.5625 0H3.47917C2.68922 0.000573882 1.93179 0.314634 1.37321 0.873212C0.814634 1.43179 0.500574 2.18922 0.5 2.97917V17.0625C0.500574 17.8524 0.814634 18.6099 1.37321 19.1685C1.93179 19.727 2.68922 20.0411 3.47917 20.0417H11.8913C12.8901 20.7242 14.0969 21.125 15.3958 21.125C18.8311 21.125 21.625 18.33 21.625 14.8958C21.625 13.5969 21.2242 12.3912 20.5417 11.3913ZM12.4405 1.625C12.4351 1.664 12.4167 1.69975 12.4167 1.74092V5.05808C12.4167 5.33217 12.0733 5.57267 11.6811 5.57267H9.3595C8.96842 5.57267 8.62392 5.33217 8.62392 5.05808V1.74092C8.62392 1.69975 8.60658 1.66508 8.60008 1.625H12.4383H12.4405ZM2.125 17.0625V2.97917C2.125 2.23275 2.73275 1.625 3.47917 1.625H7.02383C7.01842 1.664 7 1.69975 7 1.74092V5.05808C7 6.23783 8.0595 7.19767 9.36058 7.19767H11.6822C12.9832 7.19767 14.0428 6.23783 14.0428 5.05808V1.74092C14.0428 1.69975 14.0254 1.66508 14.0189 1.625H17.5636C18.31 1.625 18.9177 2.23275 18.9177 2.97917V9.76192C17.8828 9.04741 16.6546 8.66535 15.3969 8.66667C13.7455 8.66867 12.1622 9.3256 10.9944 10.4934C9.82669 11.6611 9.16976 13.2444 9.16775 14.8958C9.16775 16.2023 9.574 17.4146 10.263 18.4167H3.48025C2.73383 18.4167 2.125 17.8089 2.125 17.0625ZM15.3958 19.5C12.8565 19.5 10.7917 17.4341 10.7917 14.8958C10.7917 12.3576 12.8565 10.2917 15.3958 10.2917C17.9352 10.2917 20 12.3576 20 14.8958C20 17.4341 17.9352 19.5 15.3958 19.5ZM18.375 14.8958C18.375 15.1113 18.2894 15.318 18.137 15.4704C17.9847 15.6227 17.778 15.7083 17.5625 15.7083H16.2083V17.0625C16.2083 17.278 16.1227 17.4847 15.9704 17.637C15.818 17.7894 15.6113 17.875 15.3958 17.875C15.1803 17.875 14.9737 17.7894 14.8213 17.637C14.6689 17.4847 14.5833 17.278 14.5833 17.0625V15.7083H13.2292C13.0137 15.7083 12.807 15.6227 12.6546 15.4704C12.5023 15.318 12.4167 15.1113 12.4167 14.8958C12.4167 14.6803 12.5023 14.4737 12.6546 14.3213C12.807 14.1689 13.0137 14.0833 13.2292 14.0833H14.5833V12.7292C14.5833 12.5137 14.6689 12.307 14.8213 12.1546C14.9737 12.0023 15.1803 11.9167 15.3958 11.9167C15.6113 11.9167 15.818 12.0023 15.9704 12.1546C16.1227 12.307 16.2083 12.5137 16.2083 12.7292V14.0833H17.5625C17.778 14.0833 17.9847 14.1689 18.137 14.3213C18.2894 14.4737 18.375 14.6803 18.375 14.8958Z" fill="#F8FAFC"/>
</svg>
