<svg width="25" height="25" viewBox="0 0 25 25" fill="none" xmlns="http://www.w3.org/2000/svg">
<path d="M11.6904 21.6004C12.0804 21.9904 12.5904 22.1804 13.1004 22.1804C13.6104 22.1804 14.1204 21.9904 14.5104 21.6004L21.5804 14.5304C22.3604 13.7504 22.3604 12.4804 21.5804 11.7004L13.4304 3.54038C13.0104 3.12038 12.4404 2.91038 11.8404 2.96038L5.36038 3.55038C4.40038 3.64038 3.64038 4.40038 3.55038 5.36038L2.96038 11.8404C2.91038 12.4304 3.12038 13.0204 3.54038 13.4404L11.6904 21.5904V21.6004ZM4.95038 12.0304L5.54038 5.55038L12.0204 4.96038L20.1704 13.1104L13.1004 20.1804L4.95038 12.0304Z" fill="white"/>
<path d="M7.79969 6.31055C7.39969 6.31055 7.01969 6.47055 6.73969 6.75055C6.15969 7.33055 6.15969 8.29055 6.73969 8.87055C6.87888 9.00976 7.04414 9.12018 7.22601 9.19552C7.40789 9.27086 7.60283 9.30964 7.79969 9.30964C7.99655 9.30964 8.19148 9.27086 8.37336 9.19552C8.55524 9.12018 8.72049 9.00976 8.85969 8.87055C9.43969 8.29055 9.43969 7.34055 8.85969 6.75055C8.57969 6.47055 8.19969 6.31055 7.79969 6.31055Z" fill="white"/>
</svg>
