<svg width="24" height="25" viewBox="0 0 24 25" fill="none" xmlns="http://www.w3.org/2000/svg">
<path d="M10.5938 4.0625H23.25L22.7812 5L23.25 5.9375V7.8125L22.7812 8.75L23.25 9.6875V11.5625L22.7812 12.5L23.25 13.4375V15.3125L22.7812 16.25L23.25 17.1875V19.0625L22.7812 20L23.25 20.9375H0.75L1.21875 20L0.75 19.0625V17.1875L1.21875 16.25L0.75 15.3125V13.4375L1.21875 12.5L0.75 11.5625L10.5938 4.0625Z" fill="#EF0735"/>
<path d="M0.75 19.0625H23.25V20.9375H0.75V19.0625ZM0.75 15.3125H23.25V17.1875H0.75V15.3125ZM0.75 11.5625H23.25V13.4375H0.75V11.5625ZM10.5938 7.8125H23.25V9.6875H10.5938V7.8125ZM10.5938 4.0625H23.25V5.9375H10.5938V4.0625Z" fill="#212124"/>
<path d="M0.75 4.0625H10.5938V11.5625H0.75V4.0625Z" fill="#2E60C5"/>
<path d="M2.39609 4.50195L2.54492 4.96002H3.02656L2.63689 5.24314L2.78577 5.7012L2.39609 5.41808L2.00642 5.7012L2.1553 5.24314L1.76562 4.96002H2.24727L2.39609 4.50195ZM4.57812 4.50195L4.72695 4.96002H5.20859L4.81892 5.24314L4.9678 5.7012L4.57812 5.41808L4.1885 5.7012L4.33733 5.24314L3.94766 4.96002H4.4293L4.57812 4.50195ZM6.76016 4.50195L6.90898 4.96002H7.39063L7.001 5.24314L7.14983 5.7012L6.76016 5.41808L6.37053 5.7012L6.51936 5.24314L6.12969 4.96002H6.61133L6.76016 4.50195ZM8.94219 4.50195L9.09102 4.96002H9.57266L9.18303 5.24314L9.33186 5.7012L8.94219 5.41808L8.55256 5.7012L8.70139 5.24314L8.31172 4.96002H8.79336L8.94219 4.50195ZM2.39609 6.30941L2.54492 6.76747H3.02656L2.63689 7.05055L2.78577 7.50861L2.39609 7.22553L2.00642 7.50861L2.1553 7.05055L1.76562 6.76747H2.24727L2.39609 6.30941ZM4.57812 6.30941L4.72695 6.76747H5.20859L4.81892 7.05055L4.9678 7.50861L4.57812 7.22553L4.1885 7.50861L4.33733 7.05055L3.94766 6.76747H4.4293L4.57812 6.30941ZM6.76016 6.30941L6.90898 6.76747H7.39063L7.001 7.05055L7.14983 7.50861L6.76016 7.22553L6.37053 7.50861L6.51936 7.05055L6.12969 6.76747H6.61133L6.76016 6.30941ZM8.94219 6.30941L9.09102 6.76747H9.57266L9.18303 7.05055L9.33186 7.50861L8.94219 7.22553L8.55256 7.50861L8.70139 7.05055L8.31172 6.76747H8.79336L8.94219 6.30941ZM2.39609 8.11686L2.54492 8.57492H3.02656L2.63689 8.858L2.78577 9.31606L2.39609 9.03298L2.00642 9.31606L2.1553 8.858L1.76562 8.57492H2.24727L2.39609 8.11686ZM4.57812 8.11686L4.72695 8.57492H5.20859L4.81892 8.858L4.9678 9.31606L4.57812 9.03298L4.1885 9.31606L4.33733 8.858L3.94766 8.57492H4.4293L4.57812 8.11686ZM6.76016 8.11686L6.90898 8.57492H7.39063L7.001 8.858L7.14983 9.31606L6.76016 9.03298L6.37053 9.31606L6.51936 8.858L6.12969 8.57492H6.61133L6.76016 8.11686ZM8.94219 8.11686L9.09102 8.57492H9.57266L9.18303 8.858L9.33186 9.31606L8.94219 9.03298L8.55256 9.31606L8.70139 8.858L8.31172 8.57492H8.79336L8.94219 8.11686ZM2.39609 9.92427L2.54492 10.3823H3.02656L2.63689 10.6655L2.78577 11.1235L2.39609 10.8404L2.00642 11.1235L2.1553 10.6655L1.76562 10.3823H2.24727L2.39609 9.92427ZM4.57812 9.92427L4.72695 10.3823H5.20859L4.81892 10.6655L4.9678 11.1235L4.57812 10.8404L4.1885 11.1235L4.33733 10.6655L3.94766 10.3823H4.4293L4.57812 9.92427ZM6.76016 9.92427L6.90898 10.3823H7.39063L7.001 10.6655L7.14983 11.1235L6.76016 10.8404L6.37053 11.1235L6.51936 10.6655L6.12969 10.3823H6.61133L6.76016 9.92427ZM8.94219 9.92427L9.09102 10.3823H9.57266L9.18303 10.6655L9.33186 11.1235L8.94219 10.8404L8.55256 11.1235L8.70139 10.6655L8.31172 10.3823H8.79336L8.94219 9.92427Z" fill="#212124"/>
</svg>
