<svg width="24" height="25" viewBox="0 0 24 25" fill="none" xmlns="http://www.w3.org/2000/svg">
<path d="M10.5938 4.0625H23.25L22.7812 5L23.25 5.9375V7.8125L22.7812 8.75L23.25 9.6875V11.5625L22.7812 12.5L23.25 13.4375V15.3125L22.7812 16.25L23.25 17.1875V19.0625L22.7812 20L23.25 20.9375H0.75L1.21875 20L0.75 19.0625V17.1875L1.21875 16.25L0.75 15.3125V13.4375L1.21875 12.5L0.75 11.5625L10.5938 4.0625Z" fill="#D6062F"/>
<path d="M0.75 19.0625H23.25V20.9375H0.75V19.0625ZM0.75 15.3125H23.25V17.1875H0.75V15.3125ZM0.75 11.5625H23.25V13.4375H0.75V11.5625ZM10.5938 7.8125H23.25V9.6875H10.5938V7.8125ZM10.5938 4.0625H23.25V5.9375H10.5938V4.0625Z" fill="white"/>
<path d="M0.75 4.0625H10.5938V11.5625H0.75V4.0625Z" fill="#2956B0"/>
<path d="M2.39805 4.50195L2.54688 4.96002H3.02852L2.63884 5.24314L2.78772 5.7012L2.39805 5.41808L2.00838 5.7012L2.15725 5.24314L1.76758 4.96002H2.24922L2.39805 4.50195ZM4.58008 4.50195L4.72891 4.96002H5.21055L4.82088 5.24314L4.96975 5.7012L4.58008 5.41808L4.19045 5.7012L4.33928 5.24314L3.94961 4.96002H4.43125L4.58008 4.50195ZM6.76211 4.50195L6.91094 4.96002H7.39258L7.00295 5.24314L7.15178 5.7012L6.76211 5.41808L6.37248 5.7012L6.52131 5.24314L6.13164 4.96002H6.61328L6.76211 4.50195ZM8.94414 4.50195L9.09297 4.96002H9.57461L9.18498 5.24314L9.33381 5.7012L8.94414 5.41808L8.55452 5.7012L8.70334 5.24314L8.31367 4.96002H8.79531L8.94414 4.50195ZM2.39805 6.30941L2.54688 6.76747H3.02852L2.63884 7.05055L2.78772 7.50861L2.39805 7.22553L2.00838 7.50861L2.15725 7.05055L1.76758 6.76747H2.24922L2.39805 6.30941ZM4.58008 6.30941L4.72891 6.76747H5.21055L4.82088 7.05055L4.96975 7.50861L4.58008 7.22553L4.19045 7.50861L4.33928 7.05055L3.94961 6.76747H4.43125L4.58008 6.30941ZM6.76211 6.30941L6.91094 6.76747H7.39258L7.00295 7.05055L7.15178 7.50861L6.76211 7.22553L6.37248 7.50861L6.52131 7.05055L6.13164 6.76747H6.61328L6.76211 6.30941ZM8.94414 6.30941L9.09297 6.76747H9.57461L9.18498 7.05055L9.33381 7.50861L8.94414 7.22553L8.55452 7.50861L8.70334 7.05055L8.31367 6.76747H8.79531L8.94414 6.30941ZM2.39805 8.11686L2.54688 8.57492H3.02852L2.63884 8.858L2.78772 9.31606L2.39805 9.03298L2.00838 9.31606L2.15725 8.858L1.76758 8.57492H2.24922L2.39805 8.11686ZM4.58008 8.11686L4.72891 8.57492H5.21055L4.82088 8.858L4.96975 9.31606L4.58008 9.03298L4.19045 9.31606L4.33928 8.858L3.94961 8.57492H4.43125L4.58008 8.11686ZM6.76211 8.11686L6.91094 8.57492H7.39258L7.00295 8.858L7.15178 9.31606L6.76211 9.03298L6.37248 9.31606L6.52131 8.858L6.13164 8.57492H6.61328L6.76211 8.11686ZM8.94414 8.11686L9.09297 8.57492H9.57461L9.18498 8.858L9.33381 9.31606L8.94414 9.03298L8.55452 9.31606L8.70334 8.858L8.31367 8.57492H8.79531L8.94414 8.11686ZM2.39805 9.92427L2.54688 10.3823H3.02852L2.63884 10.6655L2.78772 11.1235L2.39805 10.8404L2.00838 11.1235L2.15725 10.6655L1.76758 10.3823H2.24922L2.39805 9.92427ZM4.58008 9.92427L4.72891 10.3823H5.21055L4.82088 10.6655L4.96975 11.1235L4.58008 10.8404L4.19045 11.1235L4.33928 10.6655L3.94961 10.3823H4.43125L4.58008 9.92427ZM6.76211 9.92427L6.91094 10.3823H7.39258L7.00295 10.6655L7.15178 11.1235L6.76211 10.8404L6.37248 11.1235L6.52131 10.6655L6.13164 10.3823H6.61328L6.76211 9.92427ZM8.94414 9.92427L9.09297 10.3823H9.57461L9.18498 10.6655L9.33381 11.1235L8.94414 10.8404L8.55452 11.1235L8.70334 10.6655L8.31367 10.3823H8.79531L8.94414 9.92427Z" fill="white"/>
</svg>
