<svg width="80" height="80" viewBox="0 0 80 80" fill="none" xmlns="http://www.w3.org/2000/svg">
<path d="M40 80C62.0914 80 80 62.0914 80 40C80 17.9086 62.0914 0 40 0C17.9086 0 0 17.9086 0 40C0 62.0914 17.9086 80 40 80Z" fill="#75B73B"/>
<path d="M56.2884 23.7233C53.9692 23.1433 50.5586 21.1402 48.3509 20.3372C39.7314 17.6437 28.1489 19.7985 24.9166 29.7649C24.6472 30.0343 24.1084 30.0343 23.8391 30.0343C17.3744 37.5763 21.6842 46.7346 21.1455 55.0847C20.9616 58.0283 19.4138 60.6312 17.4219 62.8329L34.1847 79.5782C36.1107 79.8591 38.0544 80.0003 40.0008 80.0005C59.7564 80.0005 76.1652 65.6779 79.4144 46.8504L56.2884 23.7233Z" fill="#52891D"/>
<path d="M38.88 16.9447C26.688 17.5247 17.0669 27.6784 17.1036 39.8839C17.1149 43.6014 18.0124 47.1103 19.5958 50.2112L17.165 62.0103C17.0336 62.6487 17.6092 63.2076 18.2433 63.0573L29.805 60.3183C32.7755 61.7981 36.1119 62.6525 39.6428 62.7064C52.1042 62.8969 62.4946 53.0025 62.8835 40.5456C63.2994 27.1928 52.2791 16.3064 38.88 16.9447ZM52.6758 52.4898C49.29 55.8756 44.7878 57.7405 39.9992 57.7405C37.1955 57.7405 34.5108 57.1112 32.0202 55.8708L30.4105 55.0686L23.3214 56.7478L24.8135 49.5047L24.0205 47.9511C22.7274 45.4189 22.0717 42.6811 22.0717 39.813C22.0717 35.0242 23.9366 30.5225 27.3224 27.1364C30.678 23.7805 35.2535 21.8858 39.9996 21.8858C44.7877 21.8858 49.2899 23.7506 52.6757 27.1364C56.0614 30.5222 57.9263 35.0244 57.9263 39.8125C57.9266 44.5587 56.0316 49.1341 52.6758 52.4898Z" fill="white"/>
<path d="M51.1121 44.7784L46.6771 43.5051C46.3909 43.4231 46.0878 43.4199 45.7999 43.4958C45.5121 43.5717 45.25 43.7239 45.0414 43.9363L43.9568 45.041C43.4996 45.5073 42.8058 45.6568 42.2005 45.412C40.1025 44.5629 35.6893 40.6388 34.5628 38.6767C34.2372 38.1104 34.2911 37.4029 34.6905 36.8857L35.6371 35.6609C35.8191 35.4253 35.9342 35.1449 35.9701 34.8493C36.006 34.5537 35.9614 34.254 35.841 33.9817L33.9752 29.7617C33.5283 28.751 32.2368 28.4567 31.3928 29.1704C30.1552 30.2174 28.6866 31.8079 28.5083 33.5704C28.1935 36.6777 29.5263 40.5945 34.5649 45.2977C40.3863 50.7318 45.0483 51.4492 48.0841 50.714C49.8058 50.2973 51.1817 48.6257 52.0496 47.2568C52.6419 46.3229 52.1738 45.0835 51.1121 44.7784Z" fill="white"/>
<path d="M55.6252 23.0801L52.1528 26.6391C52.3307 26.8018 52.5052 26.9681 52.6764 27.1377C56.0623 30.5235 57.927 35.0257 57.927 39.8138C57.927 44.5599 56.032 49.1351 52.6764 52.491C49.2906 55.8768 44.7884 57.7416 39.9998 57.7416C37.1961 57.7416 34.5116 57.1124 32.0208 55.872L30.4111 55.0698L23.322 56.749L23.4686 56.0376L17.1914 62.4707C17.3298 62.8868 17.7703 63.1699 18.2436 63.0579L29.8053 60.3188C32.7758 61.7987 36.1122 62.653 39.6431 62.707C52.1045 62.8974 62.4952 53.003 62.8838 40.5462C63.0986 33.6502 60.263 27.4124 55.6252 23.0801Z" fill="#D1D1D1"/>
<path d="M51.1115 44.7791L46.6765 43.5059C46.3903 43.4239 46.0872 43.4207 45.7994 43.4966C45.5115 43.5725 45.2494 43.7247 45.0409 43.9371L43.9562 45.0418C43.499 45.508 42.8052 45.6576 42.1999 45.4127C40.988 44.9223 39.0045 43.4057 37.3273 41.834L34.2441 44.9941C34.3499 45.0954 34.4554 45.1965 34.5645 45.2985C40.3859 50.7326 45.0479 51.4499 48.0837 50.7148C49.8054 50.298 51.1813 48.6265 52.0491 47.2576C52.6413 46.3237 52.1732 45.0843 51.1115 44.7791Z" fill="#D1D1D1"/>
</svg>
