<svg width="14" height="25" viewBox="0 0 14 25" fill="none" xmlns="http://www.w3.org/2000/svg">
<path d="M7 22.7598C7.22437 22.7598 7.40625 22.5779 7.40625 22.3535C7.40625 22.1291 7.22437 21.9473 7 21.9473C6.77563 21.9473 6.59375 22.1291 6.59375 22.3535C6.59375 22.5779 6.77563 22.7598 7 22.7598Z" fill="#D9D9D9"/>
<path d="M11.0625 0.822266H2.9375C2.29123 0.822911 1.67162 1.07993 1.21464 1.53691C0.75766 1.99389 0.500645 2.6135 0.5 3.25977H13.5C13.4994 2.6135 13.2423 1.99389 12.7854 1.53691C12.3284 1.07993 11.7088 0.822911 11.0625 0.822266ZM8.21875 2.44727H5.78125C5.67351 2.44727 5.57017 2.40446 5.49399 2.32828C5.4178 2.25209 5.375 2.14876 5.375 2.04102C5.375 1.93327 5.4178 1.82994 5.49399 1.75375C5.57017 1.67757 5.67351 1.63477 5.78125 1.63477H8.21875C8.32649 1.63477 8.42983 1.67757 8.50601 1.75375C8.5822 1.82994 8.625 1.93327 8.625 2.04102C8.625 2.14876 8.5822 2.25209 8.50601 2.32828C8.42983 2.40446 8.32649 2.44727 8.21875 2.44727ZM0.5 4.07227H13.5V19.5098H0.5V4.07227ZM0.5 21.9473C0.500645 22.5935 0.75766 23.2131 1.21464 23.6701C1.67162 24.1271 2.29123 24.3841 2.9375 24.3848H11.0625C11.7088 24.3841 12.3284 24.1271 12.7854 23.6701C13.2423 23.2131 13.4994 22.5935 13.5 21.9473V20.3223H0.5V21.9473ZM7 21.1348C7.24105 21.1348 7.47668 21.2062 7.6771 21.3402C7.87752 21.4741 8.03373 21.6644 8.12598 21.8871C8.21822 22.1098 8.24236 22.3549 8.19533 22.5913C8.14831 22.8277 8.03223 23.0449 7.86179 23.2153C7.69134 23.3857 7.47418 23.5018 7.23777 23.5488C7.00135 23.5959 6.7563 23.5717 6.5336 23.4795C6.31091 23.3872 6.12056 23.231 5.98665 23.0306C5.85273 22.8302 5.78125 22.5946 5.78125 22.3535C5.78125 22.0303 5.90965 21.7203 6.13821 21.4917C6.36677 21.2632 6.67677 21.1348 7 21.1348Z" fill="#D9D9D9"/>
</svg>
