<svg width="26" height="27" viewBox="0 0 26 27" fill="none" xmlns="http://www.w3.org/2000/svg">
<path d="M13 0.5C5.85965 0.5 0 6.35965 0 13.5C0 20.6404 5.85965 26.5 13 26.5C20.1404 26.5 26 20.6404 26 13.5C26 6.35965 20.1404 0.5 13 0.5ZM14.5234 19.5938C14.5234 20.4336 13.8398 21.1172 13 21.1172C12.1602 21.1172 11.4766 20.4336 11.4766 19.5938V11.9766C11.4766 11.1367 12.1602 10.4531 13 10.4531C13.8398 10.4531 14.5234 11.1367 14.5234 11.9766V19.5938ZM13 8.92969C12.1602 8.92969 11.4766 8.24607 11.4766 7.40625C11.4766 6.56643 12.1602 5.88281 13 5.88281C13.8398 5.88281 14.5234 6.56643 14.5234 7.40625C14.5234 8.24607 13.8398 8.92969 13 8.92969Z" fill="#D9D9D9"/>
</svg>
